<svg width="17" height="16" viewBox="0 0 17 16" fill="none" xmlns="http://www.w3.org/2000/svg">
<g clip-path="url(#clip0_5931_124686)">
<path d="M15.8978 6.60903L9.36982 6.60872C9.08155 6.60872 8.8479 6.84228 8.8479 7.13047V9.21531C8.8479 9.50344 9.08155 9.73706 9.36979 9.73706H13.0459C12.6434 10.7815 11.8921 11.6561 10.9335 12.2119L12.501 14.9247C15.0155 13.4708 16.5021 10.9199 16.5021 8.06434C16.5021 7.65775 16.4721 7.36709 16.4121 7.03981C16.3665 6.79116 16.1506 6.60903 15.8978 6.60903Z" fill="#167EE6"/>
<path d="M8.49995 12.8696C6.70092 12.8696 5.13038 11.8869 4.28688 10.4327L1.57349 11.9963C2.95432 14.3888 5.54105 16 8.49995 16C9.95148 16 11.3211 15.6093 12.501 14.9284V14.9247L10.9335 12.2118C10.2165 12.6276 9.38678 12.8696 8.49995 12.8696Z" fill="#12B347"/>
<path d="M12.501 14.9284V14.9247L10.9335 12.2118C10.2165 12.6276 9.38689 12.8696 8.5 12.8696V16C9.95154 16 11.3212 15.6093 12.501 14.9284Z" fill="#0F993E"/>
<path d="M3.62906 8C3.62906 7.11347 3.87106 6.28407 4.28682 5.56729L1.57343 4.00372C0.888592 5.17957 0.497803 6.54513 0.497803 8C0.497803 9.45488 0.888592 10.8204 1.57343 11.9963L4.28682 10.4327C3.87106 9.71594 3.62906 8.88654 3.62906 8Z" fill="#FFD500"/>
<path d="M8.49995 3.13044C9.6731 3.13044 10.7507 3.54719 11.5924 4.24041C11.8 4.41141 12.1018 4.39906 12.292 4.20891L13.7696 2.73172C13.9854 2.51597 13.97 2.16281 13.7395 1.96288C12.3293 0.739781 10.4944 0 8.49995 0C5.54105 0 2.95432 1.61116 1.57349 4.00372L4.28688 5.56728C5.13038 4.11312 6.70092 3.13044 8.49995 3.13044Z" fill="#FF4B26"/>
<path d="M11.5924 4.24041C11.8001 4.41141 12.1019 4.39906 12.2921 4.20891L13.7697 2.73172C13.9854 2.51597 13.9701 2.16281 13.7396 1.96288C12.3293 0.73975 10.4945 0 8.5 0V3.13044C9.67312 3.13044 10.7507 3.54719 11.5924 4.24041Z" fill="#D93F21"/>
</g>
<defs>
<clipPath id="clip0_5931_124686">
<rect width="16.0042" height="16" fill="white" transform="translate(0.497803)"/>
</clipPath>
</defs>
</svg>
